# MagicaVoxel @ ephtracy

# material
mtllib PictureOfBench.mtl
usemtl palette

# normals
vn -1 0 0
vn 1 0 0
vn 0 0 1
vn 0 0 -1
vn 0 -1 0
vn 0 1 0

# texcoords
vt 0.537109 0.5
vt 0.779297 0.5
vt 0.873047 0.5
vt 0.880859 0.5
vt 0.904297 0.5
vt 0.958984 0.5
vt 0.994141 0.5

# verts
v -20 0 2.5
v -20 0 0.5
v -20 17 2.5
v -20 17 0.5
v 16 0 2.5
v 16 0 0.5
v 16 17 2.5
v 16 17 0.5
v -20 0 2.5
v -20 17 2.5
v -19 1 2.5
v -19 8 2.5
v -19 16 2.5
v -18 11 2.5
v -18 12 2.5
v -18 15 2.5
v -18 16 2.5
v -17 5 2.5
v -17 8 2.5
v -17 11 2.5
v -17 12 2.5
v -17 15 2.5
v -14 5 2.5
v -14 8 2.5
v -14 9 2.5
v -14 13 2.5
v -14 14 2.5
v -14 15 2.5
v -13 8 2.5
v -13 9 2.5
v -13 15 2.5
v -13 16 2.5
v -12 13 2.5
v -12 14 2.5
v -12 15 2.5
v -10 13 2.5
v -10 15 2.5
v -9 6 2.5
v -9 7 2.5
v -9 8 2.5
v -9 10 2.5
v -9 12 2.5
v -9 14 2.5
v -8 3 2.5
v -8 6 2.5
v -8 7 2.5
v -8 8 2.5
v -7 3 2.5
v -7 5 2.5
v -7 7 2.5
v -7 8 2.5
v -4 10 2.5
v -4 11 2.5
v -3 10 2.5
v -3 11 2.5
v -2 3 2.5
v -2 5 2.5
v -2 7 2.5
v -2 8 2.5
v -2 12 2.5
v -2 14 2.5
v 0 3 2.5
v 0 5 2.5
v 0 7 2.5
v 0 8 2.5
v 1 11 2.5
v 1 13 2.5
v 4 14 2.5
v 4 15 2.5
v 5 3 2.5
v 5 5 2.5
v 5 7 2.5
v 5 8 2.5
v 5 11 2.5
v 5 13 2.5
v 5 14 2.5
v 5 15 2.5
v 6 3 2.5
v 6 6 2.5
v 6 7 2.5
v 6 8 2.5
v 7 6 2.5
v 7 7 2.5
v 7 8 2.5
v 7 10 2.5
v 7 13 2.5
v 7 15 2.5
v 8 9 2.5
v 8 10 2.5
v 9 9 2.5
v 9 10 2.5
v 11 13 2.5
v 11 15 2.5
v 12 8 2.5
v 12 9 2.5
v 13 8 2.5
v 13 9 2.5
v 13 11 2.5
v 13 12 2.5
v 14 11 2.5
v 14 12 2.5
v 15 1 2.5
v 15 8 2.5
v 15 16 2.5
v 16 0 2.5
v 16 17 2.5
v -20 0 0.5
v -20 17 0.5
v 16 0 0.5
v 16 17 0.5
v -20 0 2.5
v 16 0 2.5
v -20 0 0.5
v 16 0 0.5
v -20 17 2.5
v 16 17 2.5
v -20 17 0.5
v 16 17 0.5

# faces
f 3/3/1 2/3/1 1/3/1
f 4/3/1 2/3/1 3/3/1
f 5/3/2 6/3/2 7/3/2
f 7/3/2 6/3/2 8/3/2
f 11/3/3 10/3/3 9/3/3
f 12/3/3 10/3/3 11/3/3
f 13/3/3 10/3/3 12/3/3
f 14/2/3 13/2/3 12/2/3
f 15/2/3 13/2/3 14/2/3
f 16/2/3 13/2/3 15/2/3
f 17/3/3 10/3/3 13/3/3
f 17/2/3 13/2/3 16/2/3
f 18/4/3 12/4/3 11/4/3
f 19/2/3 14/2/3 12/2/3
f 19/4/3 12/4/3 18/4/3
f 20/6/3 15/6/3 14/6/3
f 20/2/3 14/2/3 19/2/3
f 21/2/3 16/2/3 15/2/3
f 21/6/3 15/6/3 20/6/3
f 22/5/3 17/5/3 16/5/3
f 22/2/3 16/2/3 21/2/3
f 23/3/3 20/3/3 19/3/3
f 23/4/3 18/4/3 11/4/3
f 23/3/3 22/3/3 21/3/3
f 23/3/3 21/3/3 20/3/3
f 23/3/3 19/3/3 18/3/3
f 24/3/3 22/3/3 23/3/3
f 25/3/3 22/3/3 24/3/3
f 26/3/3 22/3/3 25/3/3
f 27/3/3 22/3/3 26/3/3
f 28/5/3 17/5/3 22/5/3
f 28/3/3 22/3/3 27/3/3
f 29/4/3 24/4/3 23/4/3
f 29/6/3 25/6/3 24/6/3
f 30/2/3 26/2/3 25/2/3
f 30/6/3 25/6/3 29/6/3
f 31/5/3 17/5/3 28/5/3
f 31/2/3 28/2/3 27/2/3
f 32/3/3 10/3/3 17/3/3
f 32/5/3 17/5/3 31/5/3
f 33/3/3 27/3/3 26/3/3
f 33/2/3 26/2/3 30/2/3
f 33/2/3 30/2/3 29/2/3
f 34/2/3 31/2/3 27/2/3
f 34/3/3 27/3/3 33/3/3
f 34/2/3 32/2/3 31/2/3
f 35/2/3 32/2/3 34/2/3
f 36/2/3 33/2/3 29/2/3
f 36/5/3 34/5/3 33/5/3
f 36/5/3 35/5/3 34/5/3
f 37/2/3 32/2/3 35/2/3
f 37/5/3 35/5/3 36/5/3
f 38/4/3 29/4/3 23/4/3
f 39/4/3 29/4/3 38/4/3
f 40/2/3 36/2/3 29/2/3
f 40/4/3 29/4/3 39/4/3
f 40/2/3 37/2/3 36/2/3
f 41/2/3 37/2/3 40/2/3
f 42/2/3 37/2/3 41/2/3
f 43/2/3 37/2/3 42/2/3
f 44/4/3 23/4/3 11/4/3
f 44/4/3 38/4/3 23/4/3
f 45/1/3 39/1/3 38/1/3
f 45/4/3 38/4/3 44/4/3
f 46/4/3 40/4/3 39/4/3
f 46/1/3 39/1/3 45/1/3
f 47/1/3 41/1/3 40/1/3
f 47/4/3 40/4/3 46/4/3
f 48/4/3 44/4/3 11/4/3
f 48/7/3 45/7/3 44/7/3
f 49/7/3 45/7/3 48/7/3
f 50/7/3 47/7/3 46/7/3
f 50/1/3 46/1/3 45/1/3
f 51/1/3 41/1/3 47/1/3
f 51/7/3 47/7/3 50/7/3
f 52/2/3 42/2/3 41/2/3
f 52/1/3 41/1/3 51/1/3
f 53/2/3 42/2/3 52/2/3
f 54/1/3 52/1/3 51/1/3
f 54/6/3 53/6/3 52/6/3
f 55/2/3 42/2/3 53/2/3
f 55/6/3 53/6/3 54/6/3
f 56/4/3 49/4/3 48/4/3
f 56/4/3 48/4/3 11/4/3
f 57/7/3 45/7/3 49/7/3
f 57/4/3 49/4/3 56/4/3
f 58/1/3 50/1/3 45/1/3
f 58/4/3 51/4/3 50/4/3
f 59/1/3 54/1/3 51/1/3
f 59/4/3 51/4/3 58/4/3
f 60/6/3 43/6/3 42/6/3
f 60/2/3 42/2/3 55/2/3
f 60/2/3 55/2/3 54/2/3
f 61/2/3 37/2/3 43/2/3
f 61/6/3 43/6/3 60/6/3
f 62/4/3 56/4/3 11/4/3
f 62/7/3 57/7/3 56/7/3
f 63/7/3 45/7/3 57/7/3
f 63/7/3 57/7/3 62/7/3
f 64/7/3 59/7/3 58/7/3
f 64/1/3 58/1/3 45/1/3
f 65/1/3 54/1/3 59/1/3
f 65/7/3 59/7/3 64/7/3
f 66/2/3 60/2/3 54/2/3
f 66/2/3 61/2/3 60/2/3
f 67/2/3 61/2/3 66/2/3
f 68/2/3 37/2/3 61/2/3
f 68/2/3 61/2/3 67/2/3
f 69/2/3 32/2/3 37/2/3
f 69/2/3 37/2/3 68/2/3
f 70/4/3 62/4/3 11/4/3
f 70/4/3 63/4/3 62/4/3
f 71/7/3 45/7/3 63/7/3
f 71/4/3 63/4/3 70/4/3
f 72/1/3 64/1/3 45/1/3
f 72/4/3 65/4/3 64/4/3
f 73/1/3 54/1/3 65/1/3
f 73/4/3 65/4/3 72/4/3
f 74/6/3 67/6/3 66/6/3
f 74/2/3 66/2/3 54/2/3
f 75/2/3 68/2/3 67/2/3
f 75/6/3 67/6/3 74/6/3
f 76/6/3 69/6/3 68/6/3
f 76/2/3 68/2/3 75/2/3
f 77/2/3 32/2/3 69/2/3
f 77/6/3 69/6/3 76/6/3
f 78/4/3 70/4/3 11/4/3
f 78/7/3 71/7/3 70/7/3
f 79/1/3 72/1/3 45/1/3
f 79/7/3 71/7/3 78/7/3
f 79/7/3 45/7/3 71/7/3
f 80/7/3 73/7/3 72/7/3
f 80/1/3 72/1/3 79/1/3
f 81/1/3 54/1/3 73/1/3
f 81/7/3 73/7/3 80/7/3
f 82/4/3 79/4/3 78/4/3
f 82/1/3 80/1/3 79/1/3
f 83/4/3 81/4/3 80/4/3
f 83/1/3 80/1/3 82/1/3
f 84/1/3 54/1/3 81/1/3
f 84/4/3 81/4/3 83/4/3
f 85/2/3 76/2/3 75/2/3
f 85/1/3 54/1/3 84/1/3
f 85/2/3 74/2/3 54/2/3
f 85/2/3 75/2/3 74/2/3
f 85/2/3 77/2/3 76/2/3
f 86/2/3 77/2/3 85/2/3
f 87/2/3 32/2/3 77/2/3
f 87/2/3 77/2/3 86/2/3
f 88/2/3 86/2/3 85/2/3
f 88/2/3 85/2/3 84/2/3
f 89/2/3 86/2/3 88/2/3
f 90/2/3 88/2/3 84/2/3
f 90/6/3 89/6/3 88/6/3
f 91/2/3 86/2/3 89/2/3
f 91/6/3 89/6/3 90/6/3
f 92/6/3 87/6/3 86/6/3
f 92/2/3 86/2/3 91/2/3
f 92/2/3 91/2/3 90/2/3
f 93/2/3 32/2/3 87/2/3
f 93/6/3 87/6/3 92/6/3
f 94/4/3 84/4/3 83/4/3
f 94/2/3 92/2/3 90/2/3
f 94/2/3 93/2/3 92/2/3
f 94/2/3 90/2/3 84/2/3
f 94/4/3 83/4/3 82/4/3
f 95/2/3 93/2/3 94/2/3
f 96/4/3 94/4/3 82/4/3
f 96/6/3 95/6/3 94/6/3
f 97/2/3 93/2/3 95/2/3
f 97/6/3 95/6/3 96/6/3
f 98/2/3 93/2/3 97/2/3
f 99/2/3 93/2/3 98/2/3
f 100/2/3 97/2/3 96/2/3
f 100/2/3 98/2/3 97/2/3
f 100/6/3 99/6/3 98/6/3
f 101/2/3 93/2/3 99/2/3
f 101/6/3 99/6/3 100/6/3
f 102/3/3 11/3/3 9/3/3
f 102/4/3 78/4/3 11/4/3
f 102/4/3 82/4/3 78/4/3
f 102/4/3 96/4/3 82/4/3
f 103/2/3 101/2/3 100/2/3
f 103/4/3 96/4/3 102/4/3
f 103/2/3 100/2/3 96/2/3
f 104/2/3 93/2/3 101/2/3
f 104/2/3 101/2/3 103/2/3
f 104/2/3 32/2/3 93/2/3
f 104/3/3 10/3/3 32/3/3
f 105/3/3 103/3/3 102/3/3
f 105/3/3 102/3/3 9/3/3
f 105/3/3 104/3/3 103/3/3
f 106/3/3 10/3/3 104/3/3
f 106/3/3 104/3/3 105/3/3
f 107/3/4 108/3/4 109/3/4
f 109/3/4 108/3/4 110/3/4
f 113/3/5 112/3/5 111/3/5
f 114/3/5 112/3/5 113/3/5
f 115/3/6 116/3/6 117/3/6
f 117/3/6 116/3/6 118/3/6
