# MagicaVoxel @ ephtracy

# material
mtllib PictureOfTree.mtl
usemtl palette

# normals
vn -1 0 0
vn 1 0 0
vn 0 0 1
vn 0 0 -1
vn 0 -1 0
vn 0 1 0

# texcoords
vt 0.533203 0.5
vt 0.779297 0.5
vt 0.873047 0.5
vt 0.876953 0.5
vt 0.880859 0.5
vt 0.904297 0.5
vt 0.994141 0.5

# verts
v -6 0 -0.5
v -6 0 -2.5
v -6 15 -0.5
v -6 15 -1.5
v -6 15 -2.5
v -6 16 -1.5
v -6 16 -2.5
v -5 16 -1.5
v -5 16 -2.5
v -5 17 -1.5
v -5 17 -2.5
v -4 17 -1.5
v -4 17 -2.5
v -4 18 -1.5
v -4 18 -2.5
v -3 18 -1.5
v -3 18 -2.5
v -3 19 -1.5
v -3 19 -2.5
v -2 19 -1.5
v -2 19 -2.5
v -2 20 -1.5
v -2 20 -2.5
v -1 20 -1.5
v -1 20 -2.5
v -1 21 -1.5
v -1 21 -2.5
v 1 19 -1.5
v 1 19 -2.5
v 1 20 -1.5
v 1 20 -2.5
v 2 18 -1.5
v 2 18 -2.5
v 2 19 -1.5
v 2 19 -2.5
v 3 17 -1.5
v 3 17 -2.5
v 3 18 -1.5
v 3 18 -2.5
v 4 16 -1.5
v 4 16 -2.5
v 4 17 -1.5
v 4 17 -2.5
v 5 15 -1.5
v 5 15 -2.5
v 5 16 -1.5
v 5 16 -2.5
v -5 15 -1.5
v -5 15 -2.5
v -5 16 -1.5
v -5 16 -2.5
v -4 16 -1.5
v -4 16 -2.5
v -4 17 -1.5
v -4 17 -2.5
v -3 17 -1.5
v -3 17 -2.5
v -3 18 -1.5
v -3 18 -2.5
v -2 18 -1.5
v -2 18 -2.5
v -2 19 -1.5
v -2 19 -2.5
v -1 19 -1.5
v -1 19 -2.5
v -1 20 -1.5
v -1 20 -2.5
v 1 20 -1.5
v 1 20 -2.5
v 1 21 -1.5
v 1 21 -2.5
v 2 19 -1.5
v 2 19 -2.5
v 2 20 -1.5
v 2 20 -2.5
v 3 18 -1.5
v 3 18 -2.5
v 3 19 -1.5
v 3 19 -2.5
v 4 17 -1.5
v 4 17 -2.5
v 4 18 -1.5
v 4 18 -2.5
v 5 16 -1.5
v 5 16 -2.5
v 5 17 -1.5
v 5 17 -2.5
v 6 0 -0.5
v 6 0 -2.5
v 6 15 -0.5
v 6 15 -1.5
v 6 15 -2.5
v 6 16 -1.5
v 6 16 -2.5
v -6 0 -0.5
v -6 15 -0.5
v -5 1 -0.5
v -5 7 -0.5
v -5 14 -0.5
v -3 9 -0.5
v -3 10 -0.5
v -3 12 -0.5
v -3 13 -0.5
v -2 9 -0.5
v -2 10 -0.5
v -2 11 -0.5
v -2 12 -0.5
v -2 13 -0.5
v -1 4 -0.5
v -1 7 -0.5
v -1 9 -0.5
v -1 10 -0.5
v -1 11 -0.5
v -1 12 -0.5
v 0 9 -0.5
v 0 10 -0.5
v 0 11 -0.5
v 1 4 -0.5
v 1 7 -0.5
v 1 9 -0.5
v 1 10 -0.5
v 1 11 -0.5
v 1 12 -0.5
v 1 13 -0.5
v 2 9 -0.5
v 2 10 -0.5
v 2 11 -0.5
v 2 12 -0.5
v 2 13 -0.5
v 3 9 -0.5
v 3 10 -0.5
v 3 11 -0.5
v 3 12 -0.5
v 3 13 -0.5
v 5 1 -0.5
v 5 7 -0.5
v 5 14 -0.5
v 6 0 -0.5
v 6 15 -0.5
v -6 15 -1.5
v -6 16 -1.5
v -5 15 -1.5
v -5 16 -1.5
v -5 17 -1.5
v -4 16 -1.5
v -4 17 -1.5
v -4 18 -1.5
v -3 17 -1.5
v -3 18 -1.5
v -3 19 -1.5
v -2 18 -1.5
v -2 19 -1.5
v -2 20 -1.5
v -1 19 -1.5
v -1 20 -1.5
v -1 21 -1.5
v 1 19 -1.5
v 1 20 -1.5
v 1 21 -1.5
v 2 18 -1.5
v 2 19 -1.5
v 2 20 -1.5
v 3 17 -1.5
v 3 18 -1.5
v 3 19 -1.5
v 4 16 -1.5
v 4 17 -1.5
v 4 18 -1.5
v 5 15 -1.5
v 5 16 -1.5
v 5 17 -1.5
v 6 15 -1.5
v 6 16 -1.5
v -6 0 -2.5
v -6 15 -2.5
v -6 16 -2.5
v -5 15 -2.5
v -5 16 -2.5
v -5 17 -2.5
v -4 16 -2.5
v -4 17 -2.5
v -4 18 -2.5
v -3 17 -2.5
v -3 18 -2.5
v -3 19 -2.5
v -2 18 -2.5
v -2 19 -2.5
v -2 20 -2.5
v -1 19 -2.5
v -1 20 -2.5
v -1 21 -2.5
v 1 19 -2.5
v 1 20 -2.5
v 1 21 -2.5
v 2 18 -2.5
v 2 19 -2.5
v 2 20 -2.5
v 3 17 -2.5
v 3 18 -2.5
v 3 19 -2.5
v 4 16 -2.5
v 4 17 -2.5
v 4 18 -2.5
v 5 15 -2.5
v 5 16 -2.5
v 5 17 -2.5
v 6 0 -2.5
v 6 15 -2.5
v 6 16 -2.5
v -6 0 -0.5
v 6 0 -0.5
v -6 0 -2.5
v 6 0 -2.5
v -5 16 -1.5
v -4 16 -1.5
v 4 16 -1.5
v 5 16 -1.5
v -5 16 -2.5
v -4 16 -2.5
v 4 16 -2.5
v 5 16 -2.5
v -4 17 -1.5
v -3 17 -1.5
v 3 17 -1.5
v 4 17 -1.5
v -4 17 -2.5
v -3 17 -2.5
v 3 17 -2.5
v 4 17 -2.5
v -3 18 -1.5
v -2 18 -1.5
v 2 18 -1.5
v 3 18 -1.5
v -3 18 -2.5
v -2 18 -2.5
v 2 18 -2.5
v 3 18 -2.5
v -2 19 -1.5
v -1 19 -1.5
v 1 19 -1.5
v 2 19 -1.5
v -2 19 -2.5
v -1 19 -2.5
v 1 19 -2.5
v 2 19 -2.5
v -1 20 -1.5
v 1 20 -1.5
v -1 20 -2.5
v 1 20 -2.5
v -6 15 -0.5
v 6 15 -0.5
v -6 15 -1.5
v -5 15 -1.5
v 5 15 -1.5
v 6 15 -1.5
v -5 15 -2.5
v 5 15 -2.5
v -6 16 -1.5
v -5 16 -1.5
v 5 16 -1.5
v 6 16 -1.5
v -6 16 -2.5
v -5 16 -2.5
v 5 16 -2.5
v 6 16 -2.5
v -5 17 -1.5
v -4 17 -1.5
v 4 17 -1.5
v 5 17 -1.5
v -5 17 -2.5
v -4 17 -2.5
v 4 17 -2.5
v 5 17 -2.5
v -4 18 -1.5
v -3 18 -1.5
v 3 18 -1.5
v 4 18 -1.5
v -4 18 -2.5
v -3 18 -2.5
v 3 18 -2.5
v 4 18 -2.5
v -3 19 -1.5
v -2 19 -1.5
v 2 19 -1.5
v 3 19 -1.5
v -3 19 -2.5
v -2 19 -2.5
v 2 19 -2.5
v 3 19 -2.5
v -2 20 -1.5
v -1 20 -1.5
v 1 20 -1.5
v 2 20 -1.5
v -2 20 -2.5
v -1 20 -2.5
v 1 20 -2.5
v 2 20 -2.5
v -1 21 -1.5
v 1 21 -1.5
v -1 21 -2.5
v 1 21 -2.5

# faces
f 3/3/1 2/3/1 1/3/1
f 4/3/1 2/3/1 3/3/1
f 5/3/1 2/3/1 4/3/1
f 6/7/1 5/7/1 4/7/1
f 7/7/1 5/7/1 6/7/1
f 10/7/1 9/7/1 8/7/1
f 11/7/1 9/7/1 10/7/1
f 14/7/1 13/7/1 12/7/1
f 15/7/1 13/7/1 14/7/1
f 18/7/1 17/7/1 16/7/1
f 19/7/1 17/7/1 18/7/1
f 22/7/1 21/7/1 20/7/1
f 23/7/1 21/7/1 22/7/1
f 26/7/1 25/7/1 24/7/1
f 27/7/1 25/7/1 26/7/1
f 30/7/1 29/7/1 28/7/1
f 31/7/1 29/7/1 30/7/1
f 34/7/1 33/7/1 32/7/1
f 35/7/1 33/7/1 34/7/1
f 38/7/1 37/7/1 36/7/1
f 39/7/1 37/7/1 38/7/1
f 42/7/1 41/7/1 40/7/1
f 43/7/1 41/7/1 42/7/1
f 46/7/1 45/7/1 44/7/1
f 47/7/1 45/7/1 46/7/1
f 48/7/2 49/7/2 50/7/2
f 50/7/2 49/7/2 51/7/2
f 52/7/2 53/7/2 54/7/2
f 54/7/2 53/7/2 55/7/2
f 56/7/2 57/7/2 58/7/2
f 58/7/2 57/7/2 59/7/2
f 60/7/2 61/7/2 62/7/2
f 62/7/2 61/7/2 63/7/2
f 64/7/2 65/7/2 66/7/2
f 66/7/2 65/7/2 67/7/2
f 68/7/2 69/7/2 70/7/2
f 70/7/2 69/7/2 71/7/2
f 72/7/2 73/7/2 74/7/2
f 74/7/2 73/7/2 75/7/2
f 76/7/2 77/7/2 78/7/2
f 78/7/2 77/7/2 79/7/2
f 80/7/2 81/7/2 82/7/2
f 82/7/2 81/7/2 83/7/2
f 84/7/2 85/7/2 86/7/2
f 86/7/2 85/7/2 87/7/2
f 88/3/2 89/3/2 90/3/2
f 90/3/2 89/3/2 91/3/2
f 91/3/2 89/3/2 92/3/2
f 91/7/2 92/7/2 93/7/2
f 93/7/2 92/7/2 94/7/2
f 97/3/3 96/3/3 95/3/3
f 98/3/3 96/3/3 97/3/3
f 99/3/3 96/3/3 98/3/3
f 100/2/3 99/2/3 98/2/3
f 101/2/3 99/2/3 100/2/3
f 102/2/3 99/2/3 101/2/3
f 103/2/3 99/2/3 102/2/3
f 104/2/3 100/2/3 98/2/3
f 104/6/3 101/6/3 100/6/3
f 105/5/3 102/5/3 101/5/3
f 105/6/3 101/6/3 104/6/3
f 106/5/3 102/5/3 105/5/3
f 107/6/3 103/6/3 102/6/3
f 107/5/3 102/5/3 106/5/3
f 108/2/3 99/2/3 103/2/3
f 108/6/3 103/6/3 107/6/3
f 109/1/3 98/1/3 97/1/3
f 110/2/3 104/2/3 98/2/3
f 110/1/3 98/1/3 109/1/3
f 111/5/3 106/5/3 105/5/3
f 111/2/3 104/2/3 110/2/3
f 111/5/3 105/5/3 104/5/3
f 112/5/3 106/5/3 111/5/3
f 113/6/3 107/6/3 106/6/3
f 113/5/3 106/5/3 112/5/3
f 114/5/3 108/5/3 107/5/3
f 114/6/3 107/6/3 113/6/3
f 115/6/3 112/6/3 111/6/3
f 115/4/3 110/4/3 109/4/3
f 115/4/3 111/4/3 110/4/3
f 116/5/3 114/5/3 113/5/3
f 116/6/3 112/6/3 115/6/3
f 116/5/3 113/5/3 112/5/3
f 117/5/3 114/5/3 116/5/3
f 118/4/3 115/4/3 109/4/3
f 118/1/3 109/1/3 97/1/3
f 119/4/3 115/4/3 118/4/3
f 120/5/3 116/5/3 115/5/3
f 120/4/3 115/4/3 119/4/3
f 121/6/3 117/6/3 116/6/3
f 121/5/3 116/5/3 120/5/3
f 122/5/3 114/5/3 117/5/3
f 122/6/3 117/6/3 121/6/3
f 123/5/3 108/5/3 114/5/3
f 123/5/3 114/5/3 122/5/3
f 124/2/3 99/2/3 108/2/3
f 124/5/3 108/5/3 123/5/3
f 125/5/3 123/5/3 122/5/3
f 125/5/3 122/5/3 121/5/3
f 125/5/3 121/5/3 120/5/3
f 125/2/3 120/2/3 119/2/3
f 126/5/3 123/5/3 125/5/3
f 127/5/3 123/5/3 126/5/3
f 128/6/3 124/6/3 123/6/3
f 128/5/3 123/5/3 127/5/3
f 129/2/3 99/2/3 124/2/3
f 129/6/3 124/6/3 128/6/3
f 130/2/3 125/2/3 119/2/3
f 130/6/3 126/6/3 125/6/3
f 131/5/3 127/5/3 126/5/3
f 131/6/3 126/6/3 130/6/3
f 132/6/3 128/6/3 127/6/3
f 132/5/3 127/5/3 131/5/3
f 133/5/3 129/5/3 128/5/3
f 133/6/3 128/6/3 132/6/3
f 134/2/3 99/2/3 129/2/3
f 134/5/3 129/5/3 133/5/3
f 135/3/3 97/3/3 95/3/3
f 135/1/3 118/1/3 97/1/3
f 135/1/3 119/1/3 118/1/3
f 136/2/3 131/2/3 130/2/3
f 136/1/3 119/1/3 135/1/3
f 136/2/3 130/2/3 119/2/3
f 136/2/3 133/2/3 132/2/3
f 136/2/3 132/2/3 131/2/3
f 136/2/3 134/2/3 133/2/3
f 137/2/3 99/2/3 134/2/3
f 137/2/3 134/2/3 136/2/3
f 137/3/3 96/3/3 99/3/3
f 138/3/3 136/3/3 135/3/3
f 138/3/3 135/3/3 95/3/3
f 138/3/3 137/3/3 136/3/3
f 139/3/3 96/3/3 137/3/3
f 139/3/3 137/3/3 138/3/3
f 142/7/3 141/7/3 140/7/3
f 143/7/3 141/7/3 142/7/3
f 145/7/3 144/7/3 143/7/3
f 146/7/3 144/7/3 145/7/3
f 148/7/3 147/7/3 146/7/3
f 149/7/3 147/7/3 148/7/3
f 151/7/3 150/7/3 149/7/3
f 152/7/3 150/7/3 151/7/3
f 154/7/3 153/7/3 152/7/3
f 155/7/3 153/7/3 154/7/3
f 158/7/3 156/7/3 155/7/3
f 159/7/3 156/7/3 158/7/3
f 161/7/3 158/7/3 157/7/3
f 162/7/3 158/7/3 161/7/3
f 164/7/3 161/7/3 160/7/3
f 165/7/3 161/7/3 164/7/3
f 167/7/3 164/7/3 163/7/3
f 168/7/3 164/7/3 167/7/3
f 170/7/3 167/7/3 166/7/3
f 171/7/3 167/7/3 170/7/3
f 172/7/3 170/7/3 169/7/3
f 173/7/3 170/7/3 172/7/3
f 174/3/4 175/3/4 177/3/4
f 175/7/4 176/7/4 177/7/4
f 177/7/4 176/7/4 178/7/4
f 178/7/4 179/7/4 180/7/4
f 180/7/4 179/7/4 181/7/4
f 181/7/4 182/7/4 183/7/4
f 183/7/4 182/7/4 184/7/4
f 184/7/4 185/7/4 186/7/4
f 186/7/4 185/7/4 187/7/4
f 187/7/4 188/7/4 189/7/4
f 189/7/4 188/7/4 190/7/4
f 190/7/4 191/7/4 193/7/4
f 193/7/4 191/7/4 194/7/4
f 192/7/4 193/7/4 196/7/4
f 196/7/4 193/7/4 197/7/4
f 195/7/4 196/7/4 199/7/4
f 199/7/4 196/7/4 200/7/4
f 198/7/4 199/7/4 202/7/4
f 202/7/4 199/7/4 203/7/4
f 174/3/4 177/3/4 204/3/4
f 201/7/4 202/7/4 205/7/4
f 205/7/4 202/7/4 206/7/4
f 174/3/4 204/3/4 207/3/4
f 204/7/4 205/7/4 208/7/4
f 207/3/4 204/3/4 208/3/4
f 208/7/4 205/7/4 209/7/4
f 212/3/5 211/3/5 210/3/5
f 213/3/5 211/3/5 212/3/5
f 218/7/5 215/7/5 214/7/5
f 219/7/5 215/7/5 218/7/5
f 220/7/5 217/7/5 216/7/5
f 221/7/5 217/7/5 220/7/5
f 226/7/5 223/7/5 222/7/5
f 227/7/5 223/7/5 226/7/5
f 228/7/5 225/7/5 224/7/5
f 229/7/5 225/7/5 228/7/5
f 234/7/5 231/7/5 230/7/5
f 235/7/5 231/7/5 234/7/5
f 236/7/5 233/7/5 232/7/5
f 237/7/5 233/7/5 236/7/5
f 242/7/5 239/7/5 238/7/5
f 243/7/5 239/7/5 242/7/5
f 244/7/5 241/7/5 240/7/5
f 245/7/5 241/7/5 244/7/5
f 248/7/5 247/7/5 246/7/5
f 249/7/5 247/7/5 248/7/5
f 250/3/6 251/3/6 252/3/6
f 252/3/6 251/3/6 253/3/6
f 253/3/6 251/3/6 254/3/6
f 254/3/6 251/3/6 255/3/6
f 253/3/6 254/3/6 256/3/6
f 256/3/6 254/3/6 257/3/6
f 258/7/6 259/7/6 262/7/6
f 262/7/6 259/7/6 263/7/6
f 260/7/6 261/7/6 264/7/6
f 264/7/6 261/7/6 265/7/6
f 266/7/6 267/7/6 270/7/6
f 270/7/6 267/7/6 271/7/6
f 268/7/6 269/7/6 272/7/6
f 272/7/6 269/7/6 273/7/6
f 274/7/6 275/7/6 278/7/6
f 278/7/6 275/7/6 279/7/6
f 276/7/6 277/7/6 280/7/6
f 280/7/6 277/7/6 281/7/6
f 282/7/6 283/7/6 286/7/6
f 286/7/6 283/7/6 287/7/6
f 284/7/6 285/7/6 288/7/6
f 288/7/6 285/7/6 289/7/6
f 290/7/6 291/7/6 294/7/6
f 294/7/6 291/7/6 295/7/6
f 292/7/6 293/7/6 296/7/6
f 296/7/6 293/7/6 297/7/6
f 298/7/6 299/7/6 300/7/6
f 300/7/6 299/7/6 301/7/6
