# MagicaVoxel @ ephtracy

# material
mtllib BlueGreyYellowKitchenFloor.mtl
usemtl palette

# normals
vn -1 0 0
vn 1 0 0
vn 0 0 1
vn 0 0 -1
vn 0 -1 0
vn 0 1 0

# texcoords
vt 0.185547 0.5
vt 0.822266 0.5
vt 0.990234 0.5
vt 0.994141 0.5

# verts
v -17 0 17
v -17 0 -17
v -17 1 17
v -17 1 -17
v 17 0 17
v 17 0 -17
v 17 1 17
v 17 1 -17
v -17 0 17
v -17 1 17
v 17 0 17
v 17 1 17
v -17 0 -17
v -17 1 -17
v 17 0 -17
v 17 1 -17
v -17 0 17
v 17 0 17
v -16 0 16
v -12 0 16
v -8 0 16
v -4 0 16
v 0 0 16
v 4 0 16
v 8 0 16
v 12 0 16
v 16 0 16
v -16 0 12
v -12 0 12
v -8 0 12
v -4 0 12
v 0 0 12
v 4 0 12
v 8 0 12
v 12 0 12
v 16 0 12
v -16 0 8
v -12 0 8
v -8 0 8
v -4 0 8
v 0 0 8
v 4 0 8
v 8 0 8
v 12 0 8
v 16 0 8
v -16 0 4
v -12 0 4
v -8 0 4
v -4 0 4
v 0 0 4
v 4 0 4
v 8 0 4
v 12 0 4
v 16 0 4
v -16 0 -0
v -12 0 -0
v -8 0 -0
v -4 0 -0
v 0 0 -0
v 4 0 -0
v 8 0 -0
v 12 0 -0
v 16 0 -0
v -16 0 -4
v -12 0 -4
v -8 0 -4
v -4 0 -4
v 0 0 -4
v 4 0 -4
v 8 0 -4
v 12 0 -4
v 16 0 -4
v -16 0 -8
v -12 0 -8
v -8 0 -8
v -4 0 -8
v 0 0 -8
v 4 0 -8
v 8 0 -8
v 12 0 -8
v 16 0 -8
v -16 0 -12
v -12 0 -12
v -8 0 -12
v -4 0 -12
v 0 0 -12
v 4 0 -12
v 8 0 -12
v 12 0 -12
v 16 0 -12
v -16 0 -16
v -12 0 -16
v -8 0 -16
v -4 0 -16
v 0 0 -16
v 4 0 -16
v 8 0 -16
v 12 0 -16
v 16 0 -16
v -17 0 -17
v 17 0 -17
v -17 1 17
v 17 1 17
v -16 1 16
v -12 1 16
v -8 1 16
v -4 1 16
v 0 1 16
v 4 1 16
v 8 1 16
v 12 1 16
v 16 1 16
v -16 1 12
v -12 1 12
v -8 1 12
v -4 1 12
v 0 1 12
v 4 1 12
v 8 1 12
v 12 1 12
v 16 1 12
v -16 1 8
v -12 1 8
v -8 1 8
v -4 1 8
v 0 1 8
v 4 1 8
v 8 1 8
v 12 1 8
v 16 1 8
v -16 1 4
v -12 1 4
v -8 1 4
v -4 1 4
v 0 1 4
v 4 1 4
v 8 1 4
v 12 1 4
v 16 1 4
v -16 1 -0
v -12 1 -0
v -8 1 -0
v -4 1 -0
v 0 1 -0
v 4 1 -0
v 8 1 -0
v 12 1 -0
v 16 1 -0
v -16 1 -4
v -12 1 -4
v -8 1 -4
v -4 1 -4
v 0 1 -4
v 4 1 -4
v 8 1 -4
v 12 1 -4
v 16 1 -4
v -16 1 -8
v -12 1 -8
v -8 1 -8
v -4 1 -8
v 0 1 -8
v 4 1 -8
v 8 1 -8
v 12 1 -8
v 16 1 -8
v -16 1 -12
v -12 1 -12
v -8 1 -12
v -4 1 -12
v 0 1 -12
v 4 1 -12
v 8 1 -12
v 12 1 -12
v 16 1 -12
v -16 1 -16
v -12 1 -16
v -8 1 -16
v -4 1 -16
v 0 1 -16
v 4 1 -16
v 8 1 -16
v 12 1 -16
v 16 1 -16
v -17 1 -17
v 17 1 -17

# faces
f 3/4/1 2/4/1 1/4/1
f 4/4/1 2/4/1 3/4/1
f 5/4/2 6/4/2 7/4/2
f 7/4/2 6/4/2 8/4/2
f 11/4/3 10/4/3 9/4/3
f 12/4/3 10/4/3 11/4/3
f 13/4/4 14/4/4 15/4/4
f 15/4/4 14/4/4 16/4/4
f 19/4/5 18/4/5 17/4/5
f 20/4/5 18/4/5 19/4/5
f 21/4/5 18/4/5 20/4/5
f 22/4/5 18/4/5 21/4/5
f 23/4/5 18/4/5 22/4/5
f 24/4/5 18/4/5 23/4/5
f 25/4/5 18/4/5 24/4/5
f 26/4/5 18/4/5 25/4/5
f 27/4/5 18/4/5 26/4/5
f 28/4/5 19/4/5 17/4/5
f 28/2/5 20/2/5 19/2/5
f 29/3/5 21/3/5 20/3/5
f 29/2/5 20/2/5 28/2/5
f 30/1/5 22/1/5 21/1/5
f 30/3/5 21/3/5 29/3/5
f 31/3/5 23/3/5 22/3/5
f 31/1/5 22/1/5 30/1/5
f 32/2/5 24/2/5 23/2/5
f 32/3/5 23/3/5 31/3/5
f 33/3/5 25/3/5 24/3/5
f 33/2/5 24/2/5 32/2/5
f 34/1/5 26/1/5 25/1/5
f 34/3/5 25/3/5 33/3/5
f 35/3/5 27/3/5 26/3/5
f 35/1/5 26/1/5 34/1/5
f 36/4/5 18/4/5 27/4/5
f 36/3/5 27/3/5 35/3/5
f 37/4/5 28/4/5 17/4/5
f 37/3/5 29/3/5 28/3/5
f 38/1/5 30/1/5 29/1/5
f 38/3/5 29/3/5 37/3/5
f 39/3/5 31/3/5 30/3/5
f 39/1/5 30/1/5 38/1/5
f 40/2/5 32/2/5 31/2/5
f 40/3/5 31/3/5 39/3/5
f 41/3/5 33/3/5 32/3/5
f 41/2/5 32/2/5 40/2/5
f 42/1/5 34/1/5 33/1/5
f 42/3/5 33/3/5 41/3/5
f 43/3/5 35/3/5 34/3/5
f 43/1/5 34/1/5 42/1/5
f 44/2/5 36/2/5 35/2/5
f 44/3/5 35/3/5 43/3/5
f 45/4/5 18/4/5 36/4/5
f 45/2/5 36/2/5 44/2/5
f 46/4/5 37/4/5 17/4/5
f 46/1/5 38/1/5 37/1/5
f 47/3/5 39/3/5 38/3/5
f 47/1/5 38/1/5 46/1/5
f 48/2/5 40/2/5 39/2/5
f 48/3/5 39/3/5 47/3/5
f 49/3/5 41/3/5 40/3/5
f 49/2/5 40/2/5 48/2/5
f 50/1/5 42/1/5 41/1/5
f 50/3/5 41/3/5 49/3/5
f 51/3/5 43/3/5 42/3/5
f 51/1/5 42/1/5 50/1/5
f 52/2/5 44/2/5 43/2/5
f 52/3/5 43/3/5 51/3/5
f 53/3/5 45/3/5 44/3/5
f 53/2/5 44/2/5 52/2/5
f 54/4/5 18/4/5 45/4/5
f 54/3/5 45/3/5 53/3/5
f 55/4/5 46/4/5 17/4/5
f 55/3/5 47/3/5 46/3/5
f 56/2/5 48/2/5 47/2/5
f 56/3/5 47/3/5 55/3/5
f 57/3/5 49/3/5 48/3/5
f 57/2/5 48/2/5 56/2/5
f 58/1/5 50/1/5 49/1/5
f 58/3/5 49/3/5 57/3/5
f 59/3/5 51/3/5 50/3/5
f 59/1/5 50/1/5 58/1/5
f 60/2/5 52/2/5 51/2/5
f 60/3/5 51/3/5 59/3/5
f 61/3/5 53/3/5 52/3/5
f 61/2/5 52/2/5 60/2/5
f 62/1/5 54/1/5 53/1/5
f 62/3/5 53/3/5 61/3/5
f 63/4/5 18/4/5 54/4/5
f 63/1/5 54/1/5 62/1/5
f 64/2/5 56/2/5 55/2/5
f 64/4/5 55/4/5 17/4/5
f 65/3/5 57/3/5 56/3/5
f 65/2/5 56/2/5 64/2/5
f 66/1/5 58/1/5 57/1/5
f 66/3/5 57/3/5 65/3/5
f 67/3/5 59/3/5 58/3/5
f 67/1/5 58/1/5 66/1/5
f 68/2/5 60/2/5 59/2/5
f 68/3/5 59/3/5 67/3/5
f 69/3/5 61/3/5 60/3/5
f 69/2/5 60/2/5 68/2/5
f 70/1/5 62/1/5 61/1/5
f 70/3/5 61/3/5 69/3/5
f 71/3/5 63/3/5 62/3/5
f 71/1/5 62/1/5 70/1/5
f 72/4/5 18/4/5 63/4/5
f 72/3/5 63/3/5 71/3/5
f 73/3/5 65/3/5 64/3/5
f 73/4/5 64/4/5 17/4/5
f 74/1/5 66/1/5 65/1/5
f 74/3/5 65/3/5 73/3/5
f 75/3/5 67/3/5 66/3/5
f 75/1/5 66/1/5 74/1/5
f 76/2/5 68/2/5 67/2/5
f 76/3/5 67/3/5 75/3/5
f 77/3/5 69/3/5 68/3/5
f 77/2/5 68/2/5 76/2/5
f 78/1/5 70/1/5 69/1/5
f 78/3/5 69/3/5 77/3/5
f 79/3/5 71/3/5 70/3/5
f 79/1/5 70/1/5 78/1/5
f 80/2/5 72/2/5 71/2/5
f 80/3/5 71/3/5 79/3/5
f 81/4/5 18/4/5 72/4/5
f 81/2/5 72/2/5 80/2/5
f 82/1/5 74/1/5 73/1/5
f 82/4/5 73/4/5 17/4/5
f 83/3/5 75/3/5 74/3/5
f 83/1/5 74/1/5 82/1/5
f 84/2/5 76/2/5 75/2/5
f 84/3/5 75/3/5 83/3/5
f 85/3/5 77/3/5 76/3/5
f 85/2/5 76/2/5 84/2/5
f 86/1/5 78/1/5 77/1/5
f 86/3/5 77/3/5 85/3/5
f 87/3/5 79/3/5 78/3/5
f 87/1/5 78/1/5 86/1/5
f 88/2/5 80/2/5 79/2/5
f 88/3/5 79/3/5 87/3/5
f 89/3/5 81/3/5 80/3/5
f 89/2/5 80/2/5 88/2/5
f 90/4/5 18/4/5 81/4/5
f 90/3/5 81/3/5 89/3/5
f 91/3/5 83/3/5 82/3/5
f 91/4/5 82/4/5 17/4/5
f 92/2/5 84/2/5 83/2/5
f 92/3/5 83/3/5 91/3/5
f 93/3/5 85/3/5 84/3/5
f 93/2/5 84/2/5 92/2/5
f 94/1/5 86/1/5 85/1/5
f 94/3/5 85/3/5 93/3/5
f 95/3/5 87/3/5 86/3/5
f 95/1/5 86/1/5 94/1/5
f 96/2/5 88/2/5 87/2/5
f 96/3/5 87/3/5 95/3/5
f 97/3/5 89/3/5 88/3/5
f 97/2/5 88/2/5 96/2/5
f 98/1/5 90/1/5 89/1/5
f 98/3/5 89/3/5 97/3/5
f 99/4/5 18/4/5 90/4/5
f 99/1/5 90/1/5 98/1/5
f 100/4/5 92/4/5 91/4/5
f 100/4/5 91/4/5 17/4/5
f 100/4/5 99/4/5 98/4/5
f 100/4/5 97/4/5 96/4/5
f 100/4/5 98/4/5 97/4/5
f 100/4/5 95/4/5 94/4/5
f 100/4/5 96/4/5 95/4/5
f 100/4/5 93/4/5 92/4/5
f 100/4/5 94/4/5 93/4/5
f 101/4/5 18/4/5 99/4/5
f 101/4/5 99/4/5 100/4/5
f 102/4/6 103/4/6 104/4/6
f 104/4/6 103/4/6 105/4/6
f 105/4/6 103/4/6 106/4/6
f 106/4/6 103/4/6 107/4/6
f 107/4/6 103/4/6 108/4/6
f 108/4/6 103/4/6 109/4/6
f 109/4/6 103/4/6 110/4/6
f 110/4/6 103/4/6 111/4/6
f 111/4/6 103/4/6 112/4/6
f 102/4/6 104/4/6 113/4/6
f 104/2/6 105/2/6 113/2/6
f 105/3/6 106/3/6 114/3/6
f 113/2/6 105/2/6 114/2/6
f 106/1/6 107/1/6 115/1/6
f 114/3/6 106/3/6 115/3/6
f 107/3/6 108/3/6 116/3/6
f 115/1/6 107/1/6 116/1/6
f 108/2/6 109/2/6 117/2/6
f 116/3/6 108/3/6 117/3/6
f 109/3/6 110/3/6 118/3/6
f 117/2/6 109/2/6 118/2/6
f 110/1/6 111/1/6 119/1/6
f 118/3/6 110/3/6 119/3/6
f 111/3/6 112/3/6 120/3/6
f 119/1/6 111/1/6 120/1/6
f 112/4/6 103/4/6 121/4/6
f 120/3/6 112/3/6 121/3/6
f 102/4/6 113/4/6 122/4/6
f 113/3/6 114/3/6 122/3/6
f 114/1/6 115/1/6 123/1/6
f 122/3/6 114/3/6 123/3/6
f 115/3/6 116/3/6 124/3/6
f 123/1/6 115/1/6 124/1/6
f 116/2/6 117/2/6 125/2/6
f 124/3/6 116/3/6 125/3/6
f 117/3/6 118/3/6 126/3/6
f 125/2/6 117/2/6 126/2/6
f 118/1/6 119/1/6 127/1/6
f 126/3/6 118/3/6 127/3/6
f 119/3/6 120/3/6 128/3/6
f 127/1/6 119/1/6 128/1/6
f 120/2/6 121/2/6 129/2/6
f 128/3/6 120/3/6 129/3/6
f 121/4/6 103/4/6 130/4/6
f 129/2/6 121/2/6 130/2/6
f 102/4/6 122/4/6 131/4/6
f 122/1/6 123/1/6 131/1/6
f 123/3/6 124/3/6 132/3/6
f 131/1/6 123/1/6 132/1/6
f 124/2/6 125/2/6 133/2/6
f 132/3/6 124/3/6 133/3/6
f 125/3/6 126/3/6 134/3/6
f 133/2/6 125/2/6 134/2/6
f 126/1/6 127/1/6 135/1/6
f 134/3/6 126/3/6 135/3/6
f 127/3/6 128/3/6 136/3/6
f 135/1/6 127/1/6 136/1/6
f 128/2/6 129/2/6 137/2/6
f 136/3/6 128/3/6 137/3/6
f 129/3/6 130/3/6 138/3/6
f 137/2/6 129/2/6 138/2/6
f 130/4/6 103/4/6 139/4/6
f 138/3/6 130/3/6 139/3/6
f 102/4/6 131/4/6 140/4/6
f 131/3/6 132/3/6 140/3/6
f 132/2/6 133/2/6 141/2/6
f 140/3/6 132/3/6 141/3/6
f 133/3/6 134/3/6 142/3/6
f 141/2/6 133/2/6 142/2/6
f 134/1/6 135/1/6 143/1/6
f 142/3/6 134/3/6 143/3/6
f 135/3/6 136/3/6 144/3/6
f 143/1/6 135/1/6 144/1/6
f 136/2/6 137/2/6 145/2/6
f 144/3/6 136/3/6 145/3/6
f 137/3/6 138/3/6 146/3/6
f 145/2/6 137/2/6 146/2/6
f 138/1/6 139/1/6 147/1/6
f 146/3/6 138/3/6 147/3/6
f 139/4/6 103/4/6 148/4/6
f 147/1/6 139/1/6 148/1/6
f 140/2/6 141/2/6 149/2/6
f 102/4/6 140/4/6 149/4/6
f 141/3/6 142/3/6 150/3/6
f 149/2/6 141/2/6 150/2/6
f 142/1/6 143/1/6 151/1/6
f 150/3/6 142/3/6 151/3/6
f 143/3/6 144/3/6 152/3/6
f 151/1/6 143/1/6 152/1/6
f 144/2/6 145/2/6 153/2/6
f 152/3/6 144/3/6 153/3/6
f 145/3/6 146/3/6 154/3/6
f 153/2/6 145/2/6 154/2/6
f 146/1/6 147/1/6 155/1/6
f 154/3/6 146/3/6 155/3/6
f 147/3/6 148/3/6 156/3/6
f 155/1/6 147/1/6 156/1/6
f 148/4/6 103/4/6 157/4/6
f 156/3/6 148/3/6 157/3/6
f 149/3/6 150/3/6 158/3/6
f 102/4/6 149/4/6 158/4/6
f 150/1/6 151/1/6 159/1/6
f 158/3/6 150/3/6 159/3/6
f 151/3/6 152/3/6 160/3/6
f 159/1/6 151/1/6 160/1/6
f 152/2/6 153/2/6 161/2/6
f 160/3/6 152/3/6 161/3/6
f 153/3/6 154/3/6 162/3/6
f 161/2/6 153/2/6 162/2/6
f 154/1/6 155/1/6 163/1/6
f 162/3/6 154/3/6 163/3/6
f 155/3/6 156/3/6 164/3/6
f 163/1/6 155/1/6 164/1/6
f 156/2/6 157/2/6 165/2/6
f 164/3/6 156/3/6 165/3/6
f 157/4/6 103/4/6 166/4/6
f 165/2/6 157/2/6 166/2/6
f 158/1/6 159/1/6 167/1/6
f 102/4/6 158/4/6 167/4/6
f 159/3/6 160/3/6 168/3/6
f 167/1/6 159/1/6 168/1/6
f 160/2/6 161/2/6 169/2/6
f 168/3/6 160/3/6 169/3/6
f 161/3/6 162/3/6 170/3/6
f 169/2/6 161/2/6 170/2/6
f 162/1/6 163/1/6 171/1/6
f 170/3/6 162/3/6 171/3/6
f 163/3/6 164/3/6 172/3/6
f 171/1/6 163/1/6 172/1/6
f 164/2/6 165/2/6 173/2/6
f 172/3/6 164/3/6 173/3/6
f 165/3/6 166/3/6 174/3/6
f 173/2/6 165/2/6 174/2/6
f 166/4/6 103/4/6 175/4/6
f 174/3/6 166/3/6 175/3/6
f 167/3/6 168/3/6 176/3/6
f 102/4/6 167/4/6 176/4/6
f 168/2/6 169/2/6 177/2/6
f 176/3/6 168/3/6 177/3/6
f 169/3/6 170/3/6 178/3/6
f 177/2/6 169/2/6 178/2/6
f 170/1/6 171/1/6 179/1/6
f 178/3/6 170/3/6 179/3/6
f 171/3/6 172/3/6 180/3/6
f 179/1/6 171/1/6 180/1/6
f 172/2/6 173/2/6 181/2/6
f 180/3/6 172/3/6 181/3/6
f 173/3/6 174/3/6 182/3/6
f 181/2/6 173/2/6 182/2/6
f 174/1/6 175/1/6 183/1/6
f 182/3/6 174/3/6 183/3/6
f 175/4/6 103/4/6 184/4/6
f 183/1/6 175/1/6 184/1/6
f 176/4/6 177/4/6 185/4/6
f 102/4/6 176/4/6 185/4/6
f 183/4/6 184/4/6 185/4/6
f 181/4/6 182/4/6 185/4/6
f 182/4/6 183/4/6 185/4/6
f 179/4/6 180/4/6 185/4/6
f 180/4/6 181/4/6 185/4/6
f 177/4/6 178/4/6 185/4/6
f 178/4/6 179/4/6 185/4/6
f 184/4/6 103/4/6 186/4/6
f 185/4/6 184/4/6 186/4/6
