# MagicaVoxel @ ephtracy

# material
mtllib DeskUpperLowerDrawer.mtl
usemtl palette

# normals
vn -1 0 0
vn 1 0 0
vn 0 0 1
vn 0 0 -1
vn 0 -1 0
vn 0 1 0

# texcoords
vt 0.0332031 0.5
vt 0.0605469 0.5
vt 0.966797 0.5

# verts
v -4 0 4.5
v -4 0 3.5
v -4 0 -3.5
v -4 6 4.5
v -4 6 3.5
v -4 6 -3.5
v -2 4 5.5
v -2 4 4.5
v -2 5 5.5
v -2 5 4.5
v 3 1 3.5
v 3 1 -2.5
v 3 6 3.5
v 3 6 -2.5
v -3 1 3.5
v -3 1 -2.5
v -3 6 3.5
v -3 6 -2.5
v 2 4 5.5
v 2 4 4.5
v 2 5 5.5
v 2 5 4.5
v 4 0 4.5
v 4 0 3.5
v 4 0 -3.5
v 4 6 4.5
v 4 6 3.5
v 4 6 -3.5
v -2 4 5.5
v -2 5 5.5
v 2 4 5.5
v 2 5 5.5
v -4 0 4.5
v -4 6 4.5
v -2 4 4.5
v -2 5 4.5
v 2 4 4.5
v 2 5 4.5
v 4 0 4.5
v 4 6 4.5
v -3 1 -2.5
v -3 6 -2.5
v 3 1 -2.5
v 3 6 -2.5
v -3 1 3.5
v -3 6 3.5
v 3 1 3.5
v 3 6 3.5
v -4 0 -3.5
v -4 6 -3.5
v 4 0 -3.5
v 4 6 -3.5
v -4 0 4.5
v 4 0 4.5
v -4 0 3.5
v 4 0 3.5
v -4 0 -3.5
v 4 0 -3.5
v -2 4 5.5
v 2 4 5.5
v -2 4 4.5
v 2 4 4.5
v -3 1 3.5
v 3 1 3.5
v -3 1 -2.5
v 3 1 -2.5
v -2 5 5.5
v 2 5 5.5
v -2 5 4.5
v 2 5 4.5
v -4 6 4.5
v 4 6 4.5
v -4 6 3.5
v -3 6 3.5
v 3 6 3.5
v 4 6 3.5
v -3 6 -2.5
v 3 6 -2.5
v -4 6 -3.5
v 4 6 -3.5

# faces
f 4/2/1 2/2/1 1/2/1
f 5/1/1 3/1/1 2/1/1
f 5/2/1 2/2/1 4/2/1
f 6/1/1 3/1/1 5/1/1
f 9/3/1 8/3/1 7/3/1
f 10/3/1 8/3/1 9/3/1
f 13/1/1 12/1/1 11/1/1
f 14/1/1 12/1/1 13/1/1
f 15/1/2 16/1/2 17/1/2
f 17/1/2 16/1/2 18/1/2
f 19/3/2 20/3/2 21/3/2
f 21/3/2 20/3/2 22/3/2
f 23/2/2 24/2/2 26/2/2
f 24/1/2 25/1/2 27/1/2
f 26/2/2 24/2/2 27/2/2
f 27/1/2 25/1/2 28/1/2
f 31/3/3 30/3/3 29/3/3
f 32/3/3 30/3/3 31/3/3
f 35/2/3 34/2/3 33/2/3
f 36/2/3 34/2/3 35/2/3
f 37/2/3 35/2/3 33/2/3
f 38/2/3 34/2/3 36/2/3
f 39/2/3 37/2/3 33/2/3
f 39/2/3 38/2/3 37/2/3
f 40/2/3 34/2/3 38/2/3
f 40/2/3 38/2/3 39/2/3
f 43/1/3 42/1/3 41/1/3
f 44/1/3 42/1/3 43/1/3
f 45/2/4 46/2/4 47/2/4
f 47/2/4 46/2/4 48/2/4
f 49/1/4 50/1/4 51/1/4
f 51/1/4 50/1/4 52/1/4
f 55/2/5 54/2/5 53/2/5
f 56/2/5 54/2/5 55/2/5
f 57/1/5 56/1/5 55/1/5
f 58/1/5 56/1/5 57/1/5
f 61/3/5 60/3/5 59/3/5
f 62/3/5 60/3/5 61/3/5
f 63/1/6 64/1/6 65/1/6
f 65/1/6 64/1/6 66/1/6
f 67/3/6 68/3/6 69/3/6
f 69/3/6 68/3/6 70/3/6
f 71/2/6 72/2/6 73/2/6
f 73/2/6 72/2/6 74/2/6
f 74/2/6 72/2/6 75/2/6
f 75/2/6 72/2/6 76/2/6
f 73/1/6 74/1/6 77/1/6
f 75/1/6 76/1/6 78/1/6
f 73/1/6 77/1/6 79/1/6
f 77/1/6 78/1/6 79/1/6
f 78/1/6 76/1/6 80/1/6
f 79/1/6 78/1/6 80/1/6
