# MagicaVoxel @ ephtracy

# material
mtllib Door8x5.mtl
usemtl palette

# normals
vn -1 0 0
vn 1 0 0
vn 0 0 1
vn 0 0 -1
vn 0 -1 0
vn 0 1 0

# texcoords
vt 0.205078 0.5
vt 0.873047 0.5

# verts
v -3 17 9
v -3 17 5
v -3 18 9
v -3 18 5
v -1 0 10
v -1 0 -10
v -1 2 7
v -1 2 -7
v -1 13 7
v -1 13 -7
v -1 16 9
v -1 16 8
v -1 16 7
v -1 16 -7
v -1 17 9
v -1 17 8
v -1 18 9
v -1 18 8
v -1 19 9
v -1 19 8
v -1 30 7
v -1 30 -7
v -1 32 10
v -1 32 -10
v 0 2 7
v 0 2 -7
v 0 13 7
v 0 13 -7
v 0 16 7
v 0 16 -7
v 0 30 7
v 0 30 -7
v 3 17 8
v 3 17 5
v 3 18 8
v 3 18 5
v -2 17 8
v -2 17 5
v -2 18 8
v -2 18 5
v 1 2 7
v 1 2 -7
v 1 13 7
v 1 13 -7
v 1 16 7
v 1 16 -7
v 1 30 7
v 1 30 -7
v 2 0 10
v 2 0 -10
v 2 2 7
v 2 2 -7
v 2 13 7
v 2 13 -7
v 2 16 9
v 2 16 8
v 2 16 7
v 2 16 -7
v 2 17 9
v 2 17 8
v 2 18 9
v 2 18 8
v 2 19 9
v 2 19 8
v 2 30 7
v 2 30 -7
v 2 32 10
v 2 32 -10
v 4 17 9
v 4 17 5
v 4 18 9
v 4 18 5
v -1 0 10
v -1 32 10
v 2 0 10
v 2 32 10
v -3 17 9
v -3 18 9
v -1 17 9
v -1 18 9
v 2 17 9
v 2 18 9
v 4 17 9
v 4 18 9
v -1 2 -7
v -1 13 -7
v -1 16 -7
v -1 30 -7
v 0 2 -7
v 0 13 -7
v 0 16 -7
v 0 30 -7
v 1 2 -7
v 1 13 -7
v 1 16 -7
v 1 30 -7
v 2 2 -7
v 2 13 -7
v 2 16 -7
v 2 30 -7
v -2 17 8
v -2 18 8
v -1 17 8
v -1 18 8
v 2 17 8
v 2 18 8
v 3 17 8
v 3 18 8
v -1 2 7
v -1 13 7
v -1 16 7
v -1 30 7
v 0 2 7
v 0 13 7
v 0 16 7
v 0 30 7
v 1 2 7
v 1 13 7
v 1 16 7
v 1 30 7
v 2 2 7
v 2 13 7
v 2 16 7
v 2 30 7
v -3 17 5
v -3 18 5
v -2 17 5
v -2 18 5
v 3 17 5
v 3 18 5
v 4 17 5
v 4 18 5
v -1 0 -10
v -1 32 -10
v 2 0 -10
v 2 32 -10
v -1 0 10
v 2 0 10
v -1 0 -10
v 2 0 -10
v -1 13 7
v 0 13 7
v 1 13 7
v 2 13 7
v -1 13 -7
v 0 13 -7
v 1 13 -7
v 2 13 -7
v -3 17 9
v -1 17 9
v 2 17 9
v 4 17 9
v -2 17 8
v -1 17 8
v 2 17 8
v 3 17 8
v -3 17 5
v -2 17 5
v 3 17 5
v 4 17 5
v -1 30 7
v 0 30 7
v 1 30 7
v 2 30 7
v -1 30 -7
v 0 30 -7
v 1 30 -7
v 2 30 -7
v -1 2 7
v 0 2 7
v 1 2 7
v 2 2 7
v -1 2 -7
v 0 2 -7
v 1 2 -7
v 2 2 -7
v -1 16 7
v 0 16 7
v 1 16 7
v 2 16 7
v -1 16 -7
v 0 16 -7
v 1 16 -7
v 2 16 -7
v -3 18 9
v -1 18 9
v 2 18 9
v 4 18 9
v -2 18 8
v -1 18 8
v 2 18 8
v 3 18 8
v -3 18 5
v -2 18 5
v 3 18 5
v 4 18 5
v -1 32 10
v 2 32 10
v -1 32 -10
v 2 32 -10

# faces
f 3/1/1 2/1/1 1/1/1
f 4/1/1 2/1/1 3/1/1
f 7/2/1 6/2/1 5/2/1
f 8/2/1 6/2/1 7/2/1
f 9/2/1 7/2/1 5/2/1
f 10/2/1 6/2/1 8/2/1
f 11/2/1 9/2/1 5/2/1
f 11/2/1 10/2/1 9/2/1
f 12/2/1 10/2/1 11/2/1
f 13/2/1 10/2/1 12/2/1
f 14/2/1 6/2/1 10/2/1
f 14/2/1 10/2/1 13/2/1
f 15/2/1 11/2/1 5/2/1
f 15/1/1 12/1/1 11/1/1
f 16/2/1 13/2/1 12/2/1
f 16/1/1 12/1/1 15/1/1
f 17/2/1 15/2/1 5/2/1
f 18/2/1 13/2/1 16/2/1
f 19/2/1 17/2/1 5/2/1
f 19/1/1 18/1/1 17/1/1
f 20/2/1 13/2/1 18/2/1
f 20/1/1 18/1/1 19/1/1
f 21/2/1 20/2/1 19/2/1
f 21/2/1 13/2/1 20/2/1
f 22/2/1 6/2/1 14/2/1
f 23/2/1 19/2/1 5/2/1
f 23/2/1 22/2/1 21/2/1
f 23/2/1 21/2/1 19/2/1
f 24/2/1 6/2/1 22/2/1
f 24/2/1 22/2/1 23/2/1
f 27/2/1 26/2/1 25/2/1
f 28/2/1 26/2/1 27/2/1
f 31/2/1 30/2/1 29/2/1
f 32/2/1 30/2/1 31/2/1
f 35/1/1 34/1/1 33/1/1
f 36/1/1 34/1/1 35/1/1
f 37/1/2 38/1/2 39/1/2
f 39/1/2 38/1/2 40/1/2
f 41/2/2 42/2/2 43/2/2
f 43/2/2 42/2/2 44/2/2
f 45/2/2 46/2/2 47/2/2
f 47/2/2 46/2/2 48/2/2
f 49/2/2 50/2/2 51/2/2
f 51/2/2 50/2/2 52/2/2
f 49/2/2 51/2/2 53/2/2
f 52/2/2 50/2/2 54/2/2
f 49/2/2 53/2/2 55/2/2
f 53/2/2 54/2/2 55/2/2
f 55/2/2 54/2/2 56/2/2
f 56/2/2 54/2/2 57/2/2
f 54/2/2 50/2/2 58/2/2
f 57/2/2 54/2/2 58/2/2
f 49/2/2 55/2/2 59/2/2
f 55/1/2 56/1/2 59/1/2
f 56/2/2 57/2/2 60/2/2
f 59/1/2 56/1/2 60/1/2
f 49/2/2 59/2/2 61/2/2
f 60/2/2 57/2/2 62/2/2
f 49/2/2 61/2/2 63/2/2
f 61/1/2 62/1/2 63/1/2
f 62/2/2 57/2/2 64/2/2
f 63/1/2 62/1/2 64/1/2
f 63/2/2 64/2/2 65/2/2
f 64/2/2 57/2/2 65/2/2
f 58/2/2 50/2/2 66/2/2
f 49/2/2 63/2/2 67/2/2
f 65/2/2 66/2/2 67/2/2
f 63/2/2 65/2/2 67/2/2
f 66/2/2 50/2/2 68/2/2
f 67/2/2 66/2/2 68/2/2
f 69/1/2 70/1/2 71/1/2
f 71/1/2 70/1/2 72/1/2
f 75/2/3 74/2/3 73/2/3
f 76/2/3 74/2/3 75/2/3
f 79/1/3 78/1/3 77/1/3
f 80/1/3 78/1/3 79/1/3
f 83/1/3 82/1/3 81/1/3
f 84/1/3 82/1/3 83/1/3
f 89/2/3 86/2/3 85/2/3
f 90/2/3 86/2/3 89/2/3
f 91/2/3 88/2/3 87/2/3
f 92/2/3 88/2/3 91/2/3
f 97/2/3 94/2/3 93/2/3
f 98/2/3 94/2/3 97/2/3
f 99/2/3 96/2/3 95/2/3
f 100/2/3 96/2/3 99/2/3
f 101/1/4 102/1/4 103/1/4
f 103/1/4 102/1/4 104/1/4
f 105/1/4 106/1/4 107/1/4
f 107/1/4 106/1/4 108/1/4
f 109/2/4 110/2/4 113/2/4
f 113/2/4 110/2/4 114/2/4
f 111/2/4 112/2/4 115/2/4
f 115/2/4 112/2/4 116/2/4
f 117/2/4 118/2/4 121/2/4
f 121/2/4 118/2/4 122/2/4
f 119/2/4 120/2/4 123/2/4
f 123/2/4 120/2/4 124/2/4
f 125/1/4 126/1/4 127/1/4
f 127/1/4 126/1/4 128/1/4
f 129/1/4 130/1/4 131/1/4
f 131/1/4 130/1/4 132/1/4
f 133/2/4 134/2/4 135/2/4
f 135/2/4 134/2/4 136/2/4
f 139/2/5 138/2/5 137/2/5
f 140/2/5 138/2/5 139/2/5
f 145/2/5 142/2/5 141/2/5
f 146/2/5 142/2/5 145/2/5
f 147/2/5 144/2/5 143/2/5
f 148/2/5 144/2/5 147/2/5
f 153/1/5 150/1/5 149/1/5
f 154/1/5 150/1/5 153/1/5
f 155/1/5 152/1/5 151/1/5
f 156/1/5 152/1/5 155/1/5
f 157/1/5 153/1/5 149/1/5
f 158/1/5 153/1/5 157/1/5
f 159/1/5 152/1/5 156/1/5
f 160/1/5 152/1/5 159/1/5
f 165/2/5 162/2/5 161/2/5
f 166/2/5 162/2/5 165/2/5
f 167/2/5 164/2/5 163/2/5
f 168/2/5 164/2/5 167/2/5
f 169/2/6 170/2/6 173/2/6
f 173/2/6 170/2/6 174/2/6
f 171/2/6 172/2/6 175/2/6
f 175/2/6 172/2/6 176/2/6
f 177/2/6 178/2/6 181/2/6
f 181/2/6 178/2/6 182/2/6
f 179/2/6 180/2/6 183/2/6
f 183/2/6 180/2/6 184/2/6
f 185/1/6 186/1/6 189/1/6
f 189/1/6 186/1/6 190/1/6
f 187/1/6 188/1/6 191/1/6
f 191/1/6 188/1/6 192/1/6
f 185/1/6 189/1/6 193/1/6
f 193/1/6 189/1/6 194/1/6
f 192/1/6 188/1/6 195/1/6
f 195/1/6 188/1/6 196/1/6
f 197/2/6 198/2/6 199/2/6
f 199/2/6 198/2/6 200/2/6
